<svg xmlns="http://www.w3.org/2000/svg" viewBox="0 0 1000 390">
  <defs>
    <linearGradient id="bg" x1="0" y1="0" x2="1" y2="1">
      <stop offset="0%" stop-color="#081426"/>
      <stop offset="100%" stop-color="#111a34"/>
    </linearGradient>
  </defs>

  <rect width="1000" height="390" rx="24" fill="url(#bg)" stroke="#283a59"/>
  <text x="40" y="48" font-family="ui-monospace, SFMono-Regular, Menlo, monospace" font-size="16" font-weight="800" fill="#c4b5fd" letter-spacing="2">FEATURED WORK</text>
  <text x="40" y="86" font-family="Inter, system-ui, sans-serif" font-size="30" font-weight="800" fill="#f7fbff">Selected public projects</text>

  <!-- DateTime Picker -->
  <g transform="translate(40 120)">
    <rect width="440" height="110" rx="18" fill="#0b2032" stroke="#24677b"/>
    <rect x="22" y="22" width="66" height="66" rx="18" fill="#0b2a3b"/>
    <rect x="37" y="38" width="36" height="31" rx="4" fill="none" stroke="#67e8f9" stroke-width="4"/>
    <path d="M43 31v12M67 31v12M37 48h36" stroke="#67e8f9" stroke-width="4" stroke-linecap="round"/>
    <text x="110" y="48" font-family="Inter, system-ui, sans-serif" font-size="23" font-weight="800" fill="#f6fbff">DateTime Range Picker</text>
    <text x="110" y="78" font-family="ui-monospace, SFMono-Regular, Menlo, monospace" font-size="17" font-weight="650" fill="#a7c0db">React · npm · timezone API</text>
  </g>

  <!-- Markdown Reader -->
  <g transform="translate(520 120)">
    <rect width="440" height="110" rx="18" fill="#101d37" stroke="#3f6592"/>
    <rect x="22" y="22" width="66" height="66" rx="18" fill="#132746"/>
    <path d="M39 34h31a6 6 0 0 1 6 6v37H39z" fill="none" stroke="#93c5fd" stroke-width="4"/>
    <path d="M46 49h22M46 59h17" stroke="#93c5fd" stroke-width="4" stroke-linecap="round"/>
    <text x="110" y="48" font-family="Inter, system-ui, sans-serif" font-size="23" font-weight="800" fill="#f7f9ff">Ray Markdown Reader</text>
    <text x="110" y="78" font-family="ui-monospace, SFMono-Regular, Menlo, monospace" font-size="17" font-weight="650" fill="#adc0df">Android · local files · Tauri</text>
  </g>

  <!-- MR Blog -->
  <g transform="translate(40 250)">
    <rect width="440" height="110" rx="18" fill="#141a35" stroke="#5368a2"/>
    <rect x="22" y="22" width="66" height="66" rx="18" fill="#192342"/>
    <circle cx="55" cy="55" r="20" fill="none" stroke="#b7c6ff" stroke-width="4"/>
    <path d="M35 55h40M55 35c7 7 9 14 9 20s-2 13-9 20M55 35c-7 7-9 14-9 20s2 13 9 20" fill="none" stroke="#b7c6ff" stroke-width="3"/>
    <text x="110" y="48" font-family="Inter, system-ui, sans-serif" font-size="23" font-weight="800" fill="#f7f9ff">MR Blog</text>
    <text x="110" y="78" font-family="ui-monospace, SFMono-Regular, Menlo, monospace" font-size="17" font-weight="650" fill="#b4bfdc">Astro · Markdown · Pages</text>
  </g>

  <!-- Agent Workspace -->
  <g transform="translate(520 250)">
    <rect width="440" height="110" rx="18" fill="#1b1836" stroke="#705999"/>
    <rect x="22" y="22" width="66" height="66" rx="18" fill="#261f43"/>
    <path d="M42 46h26M42 58h26M42 70h18" stroke="#c4b5fd" stroke-width="4" stroke-linecap="round"/>
    <path d="M68 37l10 10-10 10" fill="none" stroke="#c4b5fd" stroke-width="4" stroke-linecap="round" stroke-linejoin="round"/>
    <text x="110" y="48" font-family="Inter, system-ui, sans-serif" font-size="23" font-weight="800" fill="#fbf9ff">Agent Workspace</text>
    <text x="110" y="78" font-family="ui-monospace, SFMono-Regular, Menlo, monospace" font-size="17" font-weight="650" fill="#c3bbd9">AGENTS.md · cross-agent rules</text>
  </g>
</svg>